<?xml version="1.0" encoding="UTF-8" standalone="no"?>
<svg
   id="Icons"
   viewBox="0 0 154.37 142.53999"
   version="1.1"
   sodipodi:docname="cam.svg"
   width="154.37"
   height="142.53999"
   inkscape:version="1.4.3 (0d15f75042, 2025-12-25)"
   xmlns:inkscape="http://www.inkscape.org/namespaces/inkscape"
   xmlns:sodipodi="http://sodipodi.sourceforge.net/DTD/sodipodi-0.dtd"
   xmlns="http://www.w3.org/2000/svg"
   xmlns:svg="http://www.w3.org/2000/svg">
  <sodipodi:namedview
     id="namedview2"
     pagecolor="#ffffff"
     bordercolor="#000000"
     borderopacity="0.25"
     inkscape:showpageshadow="2"
     inkscape:pageopacity="0.0"
     inkscape:pagecheckerboard="0"
     inkscape:deskcolor="#d1d1d1"
     inkscape:zoom="1.5933333"
     inkscape:cx="77.196653"
     inkscape:cy="71.548117"
     inkscape:window-width="1280"
     inkscape:window-height="731"
     inkscape:window-x="0"
     inkscape:window-y="0"
     inkscape:window-maximized="1"
     inkscape:current-layer="Icons" />
  <defs
     id="defs1">
    <style
       id="style1">.cls-1{fill:#fff;}</style>
  </defs>
  <path
     class="cls-1"
     d="m 153.29,47.79 c -0.67,-0.34 -1.47,-0.28 -2.08,0.15 l -28.47,20.35 c -0.18,-0.05 -0.36,-0.09 -0.55,-0.09 h -13.56 v -3.85 c 0,-7.87 -6.4,-14.27 -14.27,-14.27 h -1.48 c 7.73,-4.76 12.9,-13.31 12.9,-23.04 C 105.78,12.13 93.65,0 78.74,0 67.34,0 57.56,7.1 53.6,17.11 49.63,7.1 39.86,0 28.46,0 13.55,0 1.42,12.13 1.42,27.04 c 0,9.73 5.17,18.27 12.9,23.04 H 14.27 C 6.4,50.08 0,56.48 0,64.35 v 61.4 c 0,7.87 6.4,14.27 14.27,14.27 h 80.08 c 7.87,0 14.27,-6.4 14.27,-14.27 v -3.85 h 13.56 l 29.04,20.28 c 0.34,0.24 0.74,0.36 1.15,0.36 0.32,0 0.63,-0.07 0.92,-0.23 0.66,-0.34 1.08,-1.03 1.08,-1.77 V 49.56 c 0,-0.75 -0.42,-1.44 -1.08,-1.78 z M 78.74,4.01 c 12.7,0 23.04,10.33 23.04,23.04 0,12.71 -10.33,23.04 -23.04,23.04 C 66.03,50.09 55.7,39.76 55.7,27.05 55.7,14.34 66.03,4.01 78.74,4.01 Z M 64.61,50.08 H 42.6 c 4.95,-3.05 8.84,-7.65 11.01,-13.11 2.17,5.47 6.06,10.06 11.01,13.11 z M 5.42,27.04 C 5.42,14.34 15.75,4 28.46,4 41.17,4 51.5,14.33 51.5,27.04 51.5,39.75 41.17,50.08 28.46,50.08 15.75,50.08 5.42,39.75 5.42,27.04 Z m 99.2,98.71 c 0,5.67 -4.61,10.27 -10.27,10.27 H 14.27 C 8.6,136.02 4,131.41 4,125.75 V 64.35 C 4,58.68 8.61,54.08 14.27,54.08 h 80.08 c 5.66,0 10.27,4.61 10.27,10.27 z m 15.56,-7.85 H 108.62 V 72.2 h 11.56 z m 30.18,18.8 -26.18,-18.28 V 72.16 l 26.18,-18.71 z"
     id="path1" />
  <path
     class="cls-1"
     d="M 78.65,92.58 41.41,66.02 C 40.8,65.59 40,65.53 39.33,65.87 c -0.67,0.34 -1.08,1.03 -1.08,1.78 v 53.11 c 0,0.75 0.42,1.44 1.08,1.78 0.29,0.15 0.6,0.22 0.92,0.22 0.41,0 0.82,-0.13 1.16,-0.37 L 78.65,95.83 c 0.53,-0.38 0.84,-0.98 0.84,-1.63 0,-0.65 -0.31,-1.25 -0.84,-1.63 z m -36.4,24.3 V 71.53 l 31.8,22.67 -31.8,22.67 z"
     id="path2" />
</svg>
